<svg width="78" height="78" viewBox="0 0 78 78" fill="none" xmlns="http://www.w3.org/2000/svg">
<g id="united-states-of-america 1" clip-path="url(#clip0_281_7112)">
<g id="Group">
<path id="Vector" d="M77.5681 42.5181H0.596558V42.5192H77.5681V42.5181Z" fill="#C42126"/>
<path id="Vector_2" d="M73.5562 21.4144H4.60565V21.4156H73.5562V21.4144Z" fill="#C42126"/>
<path id="Vector_3" d="M76.2955 28.4479H1.86377V28.449H76.2955V28.4479Z" fill="#C42126"/>
<path id="Vector_4" d="M17.0375 70.6536H61.1245L61.1268 70.6511H17.0351L17.0375 70.6536Z" fill="#C42126"/>
<path id="Vector_5" d="M39.0805 0.243774C38.3212 0.243774 37.5679 0.271197 36.8201 0.313962H41.3414C40.593 0.271197 39.8398 0.243774 39.0805 0.243774Z" fill="#C42126"/>
<path id="Vector_6" d="M77.5779 35.4829H0.581909V35.4841H77.5779V35.4829Z" fill="#C42126"/>
</g>
<path id="Vector_7" d="M50.507 14.3807H68.9667C66.7741 11.7114 64.2258 9.34856 61.4026 7.34821H47.541C48.688 9.36619 49.6744 11.7473 50.507 14.3807Z" fill="#E7E7E7"/>
<path id="Vector_8" d="M47.5408 7.34825H61.4024C55.672 3.28732 48.7921 0.744232 41.3416 0.313965H40.1513C43.6581 0.755332 45.2688 3.35065 47.5408 7.34825Z" fill="#DC3027"/>
<path id="Vector_9" d="M76.298 28.4486C75.6107 25.9972 74.6889 23.6453 73.5561 21.4161H52.3189C52.7492 23.674 53.0887 26.0325 53.3401 28.4486H76.298Z" fill="#E7E7E7"/>
<path id="Vector_10" d="M51.1243 21.4149H73.5553C72.2771 18.9007 70.7415 16.5414 68.9664 14.3812H49.3719C50.0628 16.5683 50.6495 18.9276 51.1243 21.4149Z" fill="#DC3027"/>
<path id="Vector_11" d="M54.1533 42.5164H77.5652C77.6764 41.3268 77.7392 40.1212 77.7392 38.9029C77.7392 37.7499 77.6788 36.6115 77.5799 35.4835H54.1589C54.2351 37.8225 54.2338 40.1787 54.1533 42.5164Z" fill="#E7E7E7"/>
<path id="Vector_12" d="M77.5806 35.4823C77.3688 33.0669 76.9336 30.7169 76.2982 28.4498H52.354C52.5944 30.7528 52.7533 33.109 52.8308 35.4823H77.5806Z" fill="#DC3027"/>
<path id="Vector_13" d="M51.915 56.5843H73.4549C74.6037 54.3575 75.5399 52.0038 76.242 49.5507H52.9564C52.7 51.9703 52.352 54.3283 51.915 56.5843Z" fill="#E7E7E7"/>
<path id="Vector_14" d="M76.2428 49.5502C76.8916 47.2838 77.3421 44.9338 77.566 42.5177H53.4241C53.3416 44.8928 53.1781 47.2484 52.9327 49.5502H76.2428Z" fill="#DC3027"/>
<path id="Vector_15" d="M61.1271 70.6511C63.9911 68.6588 66.5755 66.2935 68.8029 63.6187H50.6649C49.8171 66.2629 48.8104 68.6403 47.6427 70.6511H61.1271Z" fill="#E7E7E7"/>
<g id="Group_2">
<path id="Vector_16" d="M49.9824 63.6182H68.8029C70.5987 61.4605 72.1577 59.1012 73.4547 56.5845H51.7569C51.2753 59.0736 50.6827 61.434 49.9824 63.6182Z" fill="#DC3027"/>
<path id="Vector_17" d="M37.6796 77.5335C37.6014 77.531 37.5234 77.5274 37.4452 77.525C37.5234 77.5272 37.6016 77.531 37.6796 77.5335Z" fill="#DC3027"/>
<path id="Vector_18" d="M39.0805 77.5609C47.2763 77.5609 54.8703 75.0027 61.1245 70.6536H47.1335C44.6503 74.9318 43.012 77.5609 39.0805 77.5609Z" fill="#DC3027"/>
</g>
<path id="Vector_19" d="M39.0807 77.5608C38.6113 77.5608 38.145 77.5499 37.6799 77.5334C38.1499 77.5492 38.6167 77.5608 39.0807 77.5608Z" fill="#C42126"/>
<path id="Vector_20" d="M48.821 7.34821H16.7604C13.9367 9.34856 11.3889 11.7113 9.19562 14.3807H51.7864C50.9538 11.7473 49.968 9.36619 48.821 7.34821Z" fill="#F3F4F5"/>
<path id="Vector_21" d="M16.7603 7.34825H48.8209C46.5485 3.35065 43.6582 0.755332 40.1514 0.313965H36.8204C29.3699 0.744232 22.49 3.28732 16.7603 7.34825Z" fill="#E73625"/>
<path id="Vector_22" d="M1.86469 28.4486H54.5594C54.3079 26.032 53.9685 23.674 53.5383 21.4161H4.60658C3.47362 23.6454 2.55204 25.9972 1.86469 28.4486Z" fill="#F3F4F5"/>
<path id="Vector_23" d="M9.19526 14.3807C7.42147 16.5409 5.88452 18.9 4.60693 21.4144H53.538C53.0636 18.9276 52.4772 16.5685 51.786 14.3807H9.19526Z" fill="#E73625"/>
<path id="Vector_24" d="M0.422791 38.9029C0.422791 40.1212 0.486286 41.3268 0.596791 42.5164H55.0317C55.1123 40.1785 55.1135 37.823 55.0372 35.4839H0.582101C0.483185 36.6115 0.422791 37.7499 0.422791 38.9029Z" fill="#F3F4F5"/>
<path id="Vector_25" d="M0.58197 35.4823H55.0365C54.9589 33.1085 54.7996 30.753 54.5597 28.4498H1.8638C1.22835 30.7174 0.793187 33.0669 0.58197 35.4823Z" fill="#E73625"/>
<path id="Vector_26" d="M54.5404 49.5502H1.9201C2.62215 52.004 3.55907 54.3571 4.70721 56.5839H53.499C53.9361 54.3284 54.2833 51.9704 54.5404 49.5502Z" fill="#F3F4F5"/>
<path id="Vector_27" d="M1.9199 49.5502H54.5402C54.785 47.2484 54.9491 44.8922 55.0315 42.5177H0.596619C0.820567 44.9343 1.27173 47.2838 1.9199 49.5502Z" fill="#E73625"/>
<path id="Vector_28" d="M17.0352 70.6511H48.7028C49.8705 68.6399 50.8777 66.2629 51.725 63.6187H9.35944C11.5868 66.2935 14.1706 68.6588 17.0352 70.6511Z" fill="#F3F4F5"/>
<g id="Group_3">
<path id="Vector_29" d="M4.70776 56.5844C6.00493 59.101 7.56375 61.4603 9.35958 63.618H51.7251C52.4247 61.434 53.0174 59.0736 53.4989 56.5844H4.70776Z" fill="#E73625"/>
<path id="Vector_30" d="M37.4454 77.5248C37.5236 77.5272 37.6016 77.5308 37.6798 77.5333C38.145 77.5497 38.6114 77.5607 39.0806 77.5607C43.0123 77.5607 46.2181 74.9317 48.7017 70.6534H17.0379C22.8728 74.7115 29.8766 77.2092 37.4454 77.5248Z" fill="#E73625"/>
</g>
<path id="Vector_31" d="M38.2818 0.263855C18.4714 0.666864 2.32494 15.9627 0.587219 35.4193H38.2825V0.263855H38.2818Z" fill="#283991"/>
<g id="Group_4">
<path id="Vector_32" d="M8.15768 22.1467L8.7466 23.9602H10.6547L9.11109 25.0816L9.70067 26.8963L8.15768 25.7743L6.61518 26.8963L7.20361 25.0816L5.66046 23.9602H7.56859L8.15768 22.1467Z" fill="#EFEFEF"/>
<path id="Vector_33" d="M8.15768 28.5536L8.7466 30.3682H10.6547L9.11109 31.4896L9.70067 33.3043L8.15768 32.1823L6.61518 33.3043L7.20361 31.4896L5.66046 30.3682H7.56859L8.15768 28.5536Z" fill="#EFEFEF"/>
<path id="Vector_34" d="M14.5657 12.5341L15.1548 14.3482H17.0622L15.5191 15.4703L16.1082 17.2837L14.5657 16.163L13.0225 17.2837L13.6116 15.4703L12.0678 14.3482H13.9759L14.5657 12.5341Z" fill="#EFEFEF"/>
<path id="Vector_35" d="M14.5657 18.9421L15.1548 20.7562H17.0622L15.5191 21.8769L16.1082 23.6917L14.5657 22.5709L13.0225 23.6917L13.6116 21.8769L12.0678 20.7562H13.9759L14.5657 18.9421Z" fill="#EFEFEF"/>
<path id="Vector_36" d="M14.5657 25.3501L15.1548 27.1649H17.0622L15.5191 28.2849L16.1082 30.0997L14.5657 28.9778L13.0225 30.0997L13.6116 28.2849L12.0678 27.1649H13.9759L14.5657 25.3501Z" fill="#EFEFEF"/>
<path id="Vector_37" d="M3.29278 30.0997L2.7032 28.2849L4.24635 27.1642H2.33937L2.2966 27.0318C2.08718 27.6795 1.898 28.335 1.72351 28.9979L1.75044 28.9778L3.29278 30.0997Z" fill="#EFEFEF"/>
<path id="Vector_38" d="M6.61537 20.4883L8.15787 19.3664L9.70103 20.4883L9.11145 18.6735L10.6546 17.5517H8.74647L8.15738 15.7382L7.5683 17.5517H6.86511C6.73453 17.7495 6.60819 17.9485 6.4812 18.1493L7.20397 18.6735L6.61537 20.4883Z" fill="#EFEFEF"/>
<path id="Vector_39" d="M14.5659 9.75503L16.1084 10.8757L15.5193 9.06229L17.0618 7.94043H15.96C15.0242 8.64002 14.1214 9.38042 13.254 10.1616L13.0214 10.8757L14.5659 9.75503Z" fill="#EFEFEF"/>
<path id="Vector_40" d="M19.4307 7.67235L20.9738 6.55048L22.5163 7.67235L21.9272 5.85758L23.4697 4.73686H21.5623L21.4823 4.49268C20.8359 4.82288 20.1962 5.16648 19.571 5.53211L20.0191 5.85742L19.4307 7.67235Z" fill="#EFEFEF"/>
<path id="Vector_41" d="M20.9739 9.33075L21.563 11.1437H23.4705L21.9273 12.2656L22.5164 14.0803L20.9739 12.9583L19.4308 14.0803L20.0198 12.2656L18.4762 11.1437H20.3842L20.9739 9.33075Z" fill="#EFEFEF"/>
<path id="Vector_42" d="M20.9739 15.7387L21.563 17.5517H23.4705L21.9273 18.6735L22.5164 20.4883L20.9739 19.3663L19.4308 20.4883L20.0198 18.6735L18.4762 17.5517H20.3842L20.9739 15.7387Z" fill="#EFEFEF"/>
<path id="Vector_43" d="M20.9739 22.1467L21.563 23.9602H23.4705L21.9273 25.0816L22.5164 26.8963L20.9739 25.7743L19.4308 26.8963L20.0198 25.0816L18.4762 23.9602H20.3842L20.9739 22.1467Z" fill="#EFEFEF"/>
<path id="Vector_44" d="M20.9739 28.5536L21.563 30.3682H23.4705L21.9273 31.4896L22.5164 33.3043L20.9739 32.1823L19.4308 33.3043L20.0198 31.4896L18.4762 30.3682H20.3842L20.9739 28.5536Z" fill="#EFEFEF"/>
<path id="Vector_45" d="M27.382 6.12616L27.9711 7.94027H29.8786L28.3361 9.0623L28.9245 10.8758L27.382 9.75503L25.8384 10.8758L26.428 9.0623L24.8843 7.94027H26.7923L27.382 6.12616Z" fill="#EFEFEF"/>
<path id="Vector_46" d="M27.382 12.5341L27.9711 14.3482H29.8786L28.3361 15.4703L28.9245 17.2837L27.382 16.163L25.8384 17.2837L26.428 15.4703L24.8843 14.3482H26.7923L27.382 12.5341Z" fill="#EFEFEF"/>
<path id="Vector_47" d="M27.382 18.9421L27.9711 20.7562H29.8786L28.3361 21.8769L28.9245 23.6917L27.382 22.5709L25.8384 23.6917L26.428 21.8769L24.8843 20.7562H26.7923L27.382 18.9421Z" fill="#EFEFEF"/>
<path id="Vector_48" d="M27.382 25.3501L27.9711 27.1649H29.8786L28.3361 28.2849L28.9245 30.0997L27.382 28.9778L25.8384 30.0997L26.428 28.2849L24.8843 27.1649H26.7923L27.382 25.3501Z" fill="#EFEFEF"/>
<path id="Vector_49" d="M33.7896 2.92273L34.3787 4.73684H36.2861L34.743 5.85756L35.3321 7.67232L33.7896 6.5503L32.2459 7.67232L32.8355 5.85756L31.2919 4.73684H33.1993L33.7896 2.92273Z" fill="#EFEFEF"/>
<path id="Vector_50" d="M33.7896 9.33075L34.3787 11.1437H36.2861L34.743 12.2656L35.3321 14.0803L33.7896 12.9583L32.2459 14.0803L32.8355 12.2656L31.2919 11.1437H33.1993L33.7896 9.33075Z" fill="#EFEFEF"/>
<path id="Vector_51" d="M33.7896 15.7387L34.3787 17.5517H36.2861L34.743 18.6735L35.3321 20.4883L33.7896 19.3663L32.2459 20.4883L32.8355 18.6735L31.2919 17.5517H33.1993L33.7896 15.7387Z" fill="#EFEFEF"/>
<path id="Vector_52" d="M33.7896 22.1467L34.3787 23.9602H36.2861L34.743 25.0816L35.3321 26.8963L33.7896 25.7743L32.2459 26.8963L32.8355 25.0816L31.2919 23.9602H33.1993L33.7896 22.1467Z" fill="#EFEFEF"/>
<path id="Vector_53" d="M33.7896 28.5536L34.3787 30.3682H36.2861L34.743 31.4896L35.3321 33.3043L33.7896 32.1823L32.2459 33.3043L32.8355 31.4896L31.2919 30.3682H33.1993L33.7896 28.5536Z" fill="#EFEFEF"/>
</g>
</g>
<defs>
<clipPath id="clip0_281_7112">
<rect width="77.3171" height="77.3171" fill="white" transform="translate(0.422363 0.243774)"/>
</clipPath>
</defs>
</svg>
