<svg width="48" height="47" viewBox="0 0 48 47" fill="none" xmlns="http://www.w3.org/2000/svg">
<g id="united-kingdom (1) 1">
<g id="_x30_1_United_Kingdom_x2C__country_x2C__national_x2C__flag_x2C__world_flag">
<g id="XMLID_684_">
<path id="XMLID_670_" d="M2.36377 35.107V11.6929L5.06539 7.19019H18.5735L23.9767 8.09073L29.38 7.19019H42.8881L45.5897 11.6929V35.107L42.8881 39.6097H29.38L23.9767 38.7091L18.5735 39.6097H5.06539L2.36377 35.107Z" fill="#0053B5"/>
<path id="XMLID_669_" d="M2.36377 17.9967H45.5897V28.8032H2.36377V17.9967Z" fill="white"/>
<path id="XMLID_668_" d="M2.36377 19.7979H45.5897V27.0022H2.36377V19.7979Z" fill="#D80027"/>
<path id="XMLID_667_" d="M18.5735 7.19031H29.38V39.6098H18.5735V7.19031Z" fill="white"/>
<path id="XMLID_666_" d="M20.3745 7.19031H27.5788V39.6098H20.3745V7.19031Z" fill="#D80027"/>
<path id="XMLID_665_" d="M45.5896 7.19031H42.888L29.3799 16.1957V18.8973L36.5842 17.9968L45.5896 11.693V7.19031Z" fill="white"/>
<path id="XMLID_664_" d="M45.5896 7.19031L29.3799 17.9968H33.8826L45.5896 9.89193V7.19031Z" fill="#D80027"/>
<path id="XMLID_663_" d="M2.36377 7.19019H5.06539L18.5735 16.1956V18.8972L11.3692 17.9967L2.36377 11.6929V7.19019Z" fill="white"/>
<path id="XMLID_662_" d="M2.36377 7.19019L18.5735 17.9967H14.0708L2.36377 9.89181V7.19019Z" fill="#D80027"/>
<path id="XMLID_661_" d="M2.36377 39.6097H5.06539L18.5735 30.6043V27.9027L11.3692 28.8033L2.36377 35.107V39.6097Z" fill="white"/>
<path id="XMLID_660_" d="M2.36377 39.6097L18.5735 28.8032H14.0708L2.36377 36.9081V39.6097Z" fill="#D80027"/>
<path id="XMLID_659_" d="M45.5896 39.6097H42.888L29.3799 30.6043V27.9027L36.5842 28.8033L45.5896 35.107V39.6097Z" fill="white"/>
<path id="XMLID_658_" d="M45.5896 39.6097L29.3799 28.8032H33.8826L45.5896 36.9081V39.6097Z" fill="#D80027"/>
</g>
</g>
</g>
</svg>
