<svg width="44" height="31" viewBox="0 0 44 31" fill="none" xmlns="http://www.w3.org/2000/svg">
<g id="usd.static.e8b657d1161a08a32415d284a8e1dc89 1" clip-path="url(#clip0_281_6611)">
<path id="Vector" d="M0.492188 0.0306396H43.1845V30.7691H0.492188V0.0306396Z" fill="white"/>
<path id="Vector_2" fill-rule="evenodd" clip-rule="evenodd" d="M43.1845 0.0306396H18.7889V2.07936H43.1845V0.0306396ZM43.1845 4.12961H18.7889V6.17833H43.1845V4.12961ZM18.7889 8.22705H43.1845V10.2773H18.7889V8.22705ZM43.1845 12.326H18.7889V14.3747H43.1845V12.326ZM0.492188 16.425H43.1845V18.4737H0.492188V16.425ZM43.1845 20.5224H0.492188V22.5727H43.1845V20.5224ZM0.492188 24.6214H43.1845V26.6701H0.492188V24.6214ZM43.1845 28.7204H0.492188V30.7691H43.1845V28.7204Z" fill="#D02F44"/>
<path id="Vector_3" fill-rule="evenodd" clip-rule="evenodd" d="M18.7889 0.0306396H0.492188V14.3747H18.7889V0.0306396ZM3.54164 4.12961C3.67519 4.12961 3.80744 4.1031 3.93082 4.05158C4.05421 4.00006 4.16632 3.92455 4.26076 3.82936C4.3552 3.73417 4.43011 3.62116 4.48122 3.49679C4.53232 3.37241 4.55863 3.23911 4.55863 3.10449C4.55863 2.96986 4.53232 2.83656 4.48122 2.71219C4.43011 2.58781 4.3552 2.4748 4.26076 2.37961C4.16632 2.28442 4.05421 2.20891 3.93082 2.15739C3.80744 2.10587 3.67519 2.07936 3.54164 2.07936C3.27192 2.07936 3.01324 2.18736 2.82252 2.37961C2.63179 2.57186 2.52465 2.83261 2.52465 3.10449C2.52465 3.37637 2.63179 3.63711 2.82252 3.82936C3.01324 4.02161 3.27192 4.12961 3.54164 4.12961ZM7.60808 4.12961C7.74163 4.12961 7.87388 4.1031 7.99727 4.05158C8.12065 4.00006 8.23277 3.92455 8.3272 3.82936C8.42164 3.73417 8.49655 3.62116 8.54766 3.49679C8.59877 3.37241 8.62507 3.23911 8.62507 3.10449C8.62507 2.96986 8.59877 2.83656 8.54766 2.71219C8.49655 2.58781 8.42164 2.4748 8.3272 2.37961C8.23277 2.28442 8.12065 2.20891 7.99727 2.15739C7.87388 2.10587 7.74163 2.07936 7.60808 2.07936C7.33836 2.07936 7.07968 2.18736 6.88896 2.37961C6.69824 2.57186 6.59109 2.83261 6.59109 3.10449C6.59109 3.37637 6.69824 3.63711 6.88896 3.82936C7.07968 4.02161 7.33836 4.12961 7.60808 4.12961ZM11.673 4.12961C11.8066 4.12961 11.9388 4.1031 12.0622 4.05158C12.1856 4.00006 12.2977 3.92455 12.3921 3.82936C12.4866 3.73417 12.5615 3.62116 12.6126 3.49679C12.6637 3.37241 12.69 3.23911 12.69 3.10449C12.69 2.96986 12.6637 2.83656 12.6126 2.71219C12.5615 2.58781 12.4866 2.4748 12.3921 2.37961C12.2977 2.28442 12.1856 2.20891 12.0622 2.15739C11.9388 2.10587 11.8066 2.07936 11.673 2.07936C11.4033 2.07936 11.1446 2.18736 10.9539 2.37961C10.7632 2.57186 10.656 2.83261 10.656 3.10449C10.656 3.37637 10.7632 3.63711 10.9539 3.82936C11.1446 4.02161 11.4033 4.12961 11.673 4.12961ZM15.7394 4.12961C15.8762 4.13495 16.0126 4.11241 16.1406 4.06334C16.2685 4.01427 16.3852 3.93967 16.4839 3.84403C16.5825 3.74838 16.661 3.63365 16.7146 3.5067C16.7682 3.37976 16.7958 3.24322 16.7958 3.10525C16.7958 2.96729 16.7682 2.83075 16.7146 2.7038C16.661 2.57686 16.5825 2.46213 16.4839 2.36648C16.3852 2.27083 16.2685 2.19624 16.1406 2.14717C16.0126 2.0981 15.8762 2.07555 15.7394 2.0809C15.4767 2.09115 15.2282 2.20357 15.0459 2.39455C14.8636 2.58553 14.7618 2.84024 14.7618 3.10525C14.7618 3.37026 14.8636 3.62498 15.0459 3.81596C15.2282 4.00694 15.4767 4.11935 15.7394 4.12961ZM5.5741 6.17833C5.70755 6.18358 5.84072 6.16228 5.96601 6.11565C6.0913 6.06902 6.20624 5.99797 6.30429 5.90656C6.40234 5.81515 6.48156 5.70517 6.53744 5.5829C6.59332 5.46062 6.62476 5.32845 6.62997 5.19393C6.63517 5.05941 6.61404 4.92518 6.56778 4.79889C6.52152 4.6726 6.45104 4.55673 6.36035 4.4579C6.26967 4.35907 6.16056 4.27921 6.03926 4.22288C5.91796 4.16655 5.78684 4.13486 5.65338 4.12961C5.38386 4.11902 5.1212 4.21677 4.92319 4.40139C4.72517 4.586 4.60802 4.84234 4.59751 5.11401C4.587 5.38569 4.68398 5.65045 4.86713 5.85005C5.05027 6.04965 5.30458 6.16773 5.5741 6.17833ZM9.64054 6.17833C9.77399 6.18358 9.90716 6.16228 10.0325 6.11565C10.1577 6.06902 10.2727 5.99797 10.3707 5.90656C10.4688 5.81515 10.548 5.70517 10.6039 5.5829C10.6598 5.46062 10.6912 5.32845 10.6964 5.19393C10.7016 5.05941 10.6805 4.92518 10.6342 4.79889C10.588 4.6726 10.5175 4.55673 10.4268 4.4579C10.3361 4.35907 10.227 4.27921 10.1057 4.22288C9.9844 4.16655 9.85328 4.13486 9.71982 4.12961C9.4503 4.11902 9.18765 4.21677 8.98963 4.40139C8.79162 4.586 8.67447 4.84234 8.66395 5.11401C8.65344 5.38569 8.75042 5.65045 8.93357 5.85005C9.11671 6.04965 9.37102 6.16773 9.64054 6.17833ZM13.707 6.17833C13.8404 6.18358 13.9736 6.16228 14.0989 6.11565C14.2242 6.06902 14.3391 5.99797 14.4372 5.90656C14.5352 5.81515 14.6144 5.70517 14.6703 5.5829C14.7262 5.46062 14.7576 5.32845 14.7629 5.19393C14.7681 5.05941 14.7469 4.92518 14.7007 4.79889C14.6544 4.6726 14.5839 4.55673 14.4932 4.4579C14.4026 4.35907 14.2934 4.27921 14.1721 4.22288C14.0508 4.16655 13.9197 4.13486 13.7863 4.12961C13.5167 4.11902 13.2541 4.21677 13.0561 4.40139C12.8581 4.586 12.7409 4.84234 12.7304 5.11401C12.7199 5.38569 12.8169 5.65045 13 5.85005C13.1832 6.04965 13.4375 6.16773 13.707 6.17833ZM15.7394 8.22705C15.8729 8.2323 16.0061 8.211 16.1314 8.16437C16.2566 8.11774 16.3716 8.04669 16.4696 7.95528C16.5677 7.86387 16.6469 7.75389 16.7028 7.63162C16.7587 7.50934 16.7901 7.37717 16.7953 7.24265C16.8005 7.10813 16.7794 6.97389 16.7331 6.8476C16.6869 6.72132 16.6164 6.60545 16.5257 6.50662C16.435 6.40779 16.3259 6.32793 16.2046 6.2716C16.0833 6.21527 15.9522 6.18358 15.8187 6.17833C15.5492 6.16773 15.2865 6.26549 15.0885 6.4501C14.8905 6.63471 14.7734 6.89105 14.7629 7.16273C14.7523 7.43441 14.8493 7.69917 15.0325 7.89877C15.2156 8.09837 15.4699 8.21645 15.7394 8.22705ZM11.673 8.22705C11.8065 8.2323 11.9396 8.211 12.0649 8.16437C12.1902 8.11774 12.3051 8.04669 12.4032 7.95528C12.5012 7.86387 12.5805 7.75389 12.6363 7.63162C12.6922 7.50934 12.7237 7.37717 12.7289 7.24265C12.7341 7.10813 12.7129 6.97389 12.6667 6.8476C12.6204 6.72132 12.5499 6.60545 12.4593 6.50662C12.3686 6.40779 12.2595 6.32793 12.1382 6.2716C12.0169 6.21527 11.8857 6.18358 11.7523 6.17833C11.4828 6.16773 11.2201 6.26549 11.0221 6.4501C10.8241 6.63471 10.7069 6.89105 10.6964 7.16273C10.6859 7.43441 10.7829 7.69917 10.966 7.89877C11.1492 8.09837 11.4035 8.21645 11.673 8.22705ZM7.60808 8.22705C7.74153 8.2323 7.87471 8.211 7.99999 8.16437C8.12528 8.11774 8.24023 8.04669 8.33827 7.95528C8.43632 7.86387 8.51555 7.75389 8.57143 7.63162C8.62731 7.50934 8.65875 7.37717 8.66395 7.24265C8.66916 7.10813 8.64803 6.97389 8.60177 6.8476C8.55551 6.72132 8.48502 6.60545 8.39434 6.50662C8.30365 6.40779 8.19455 6.32793 8.07324 6.2716C7.95194 6.21527 7.82082 6.18358 7.68737 6.17833C7.41785 6.16773 7.15519 6.26549 6.95717 6.4501C6.75916 6.63471 6.64201 6.89105 6.63149 7.16273C6.62098 7.43441 6.71796 7.69917 6.90111 7.89877C7.08425 8.09837 7.33856 8.21645 7.60808 8.22705ZM3.54164 8.22705C3.67509 8.2323 3.80826 8.211 3.93355 8.16437C4.05884 8.11774 4.17379 8.04669 4.27183 7.95528C4.36988 7.86387 4.4491 7.75389 4.50498 7.63162C4.56086 7.50934 4.5923 7.37717 4.59751 7.24265C4.60272 7.10813 4.58159 6.97389 4.53533 6.8476C4.48906 6.72132 4.41858 6.60545 4.3279 6.50662C4.23721 6.40779 4.1281 6.32793 4.0068 6.2716C3.8855 6.21527 3.75438 6.18358 3.62092 6.17833C3.3514 6.16773 3.08874 6.26549 2.89073 6.4501C2.69272 6.63471 2.57557 6.89105 2.56505 7.16273C2.55454 7.43441 2.65152 7.69917 2.83467 7.89877C3.01781 8.09837 3.27212 8.21645 3.54164 8.22705ZM5.5741 10.2773C5.84382 10.2773 6.1025 10.1693 6.29322 9.97705C6.48394 9.7848 6.59109 9.52406 6.59109 9.25218C6.59109 8.9803 6.48394 8.71955 6.29322 8.5273C6.1025 8.33506 5.84382 8.22705 5.5741 8.22705C5.30437 8.22705 5.0457 8.33506 4.85498 8.5273C4.66425 8.71955 4.55711 8.9803 4.55711 9.25218C4.55711 9.52406 4.66425 9.7848 4.85498 9.97705C5.0457 10.1693 5.30437 10.2773 5.5741 10.2773ZM9.64054 10.2773C9.91026 10.2773 10.1689 10.1693 10.3597 9.97705C10.5504 9.7848 10.6575 9.52406 10.6575 9.25218C10.6575 8.9803 10.5504 8.71955 10.3597 8.5273C10.1689 8.33506 9.91026 8.22705 9.64054 8.22705C9.37082 8.22705 9.11214 8.33506 8.92142 8.5273C8.73069 8.71955 8.62355 8.9803 8.62355 9.25218C8.62355 9.52406 8.73069 9.7848 8.92142 9.97705C9.11214 10.1693 9.37082 10.2773 9.64054 10.2773ZM13.707 10.2773C13.9767 10.2773 14.2354 10.1693 14.4261 9.97705C14.6168 9.7848 14.724 9.52406 14.724 9.25218C14.724 8.9803 14.6168 8.71955 14.4261 8.5273C14.2354 8.33506 13.9767 8.22705 13.707 8.22705C13.4373 8.22705 13.1786 8.33506 12.9879 8.5273C12.7971 8.71955 12.69 8.9803 12.69 9.25218C12.69 9.52406 12.7971 9.7848 12.9879 9.97705C13.1786 10.1693 13.4373 10.2773 13.707 10.2773ZM15.7394 12.326C15.8729 12.3313 16.0061 12.31 16.1314 12.2633C16.2566 12.2167 16.3716 12.1457 16.4696 12.0543C16.5677 11.9628 16.6469 11.8529 16.7028 11.7306C16.7587 11.6083 16.7901 11.4761 16.7953 11.3416C16.8005 11.2071 16.7794 11.0729 16.7331 10.9466C16.6869 10.8203 16.6164 10.7044 16.5257 10.6056C16.435 10.5068 16.3259 10.4269 16.2046 10.3706C16.0833 10.3142 15.9522 10.2826 15.8187 10.2773C15.5492 10.2667 15.2865 10.3645 15.0885 10.5491C14.8905 10.7337 14.7734 10.99 14.7629 11.2617C14.7523 11.5334 14.8493 11.7981 15.0325 11.9977C15.2156 12.1973 15.4699 12.3154 15.7394 12.326ZM11.673 12.326C11.8065 12.3313 11.9396 12.31 12.0649 12.2633C12.1902 12.2167 12.3051 12.1457 12.4032 12.0543C12.5012 11.9628 12.5805 11.8529 12.6363 11.7306C12.6922 11.6083 12.7237 11.4761 12.7289 11.3416C12.7341 11.2071 12.7129 11.0729 12.6667 10.9466C12.6204 10.8203 12.5499 10.7044 12.4593 10.6056C12.3686 10.5068 12.2595 10.4269 12.1382 10.3706C12.0169 10.3142 11.8857 10.2826 11.7523 10.2773C11.4828 10.2667 11.2201 10.3645 11.0221 10.5491C10.8241 10.7337 10.7069 10.99 10.6964 11.2617C10.6859 11.5334 10.7829 11.7981 10.966 11.9977C11.1492 12.1973 11.4035 12.3154 11.673 12.326ZM7.60808 12.326C7.74153 12.3313 7.87471 12.31 7.99999 12.2633C8.12528 12.2167 8.24023 12.1457 8.33827 12.0543C8.43632 11.9628 8.51555 11.8529 8.57143 11.7306C8.62731 11.6083 8.65875 11.4761 8.66395 11.3416C8.66916 11.2071 8.64803 11.0729 8.60177 10.9466C8.55551 10.8203 8.48502 10.7044 8.39434 10.6056C8.30365 10.5068 8.19455 10.4269 8.07324 10.3706C7.95194 10.3142 7.82082 10.2826 7.68737 10.2773C7.41785 10.2667 7.15519 10.3645 6.95717 10.5491C6.75916 10.7337 6.64201 10.99 6.63149 11.2617C6.62098 11.5334 6.71796 11.7981 6.90111 11.9977C7.08425 12.1973 7.33856 12.3154 7.60808 12.326ZM3.54164 12.326C3.67509 12.3313 3.80826 12.31 3.93355 12.2633C4.05884 12.2167 4.17379 12.1457 4.27183 12.0543C4.36988 11.9628 4.4491 11.8529 4.50498 11.7306C4.56086 11.6083 4.5923 11.4761 4.59751 11.3416C4.60272 11.2071 4.58159 11.0729 4.53533 10.9466C4.48906 10.8203 4.41858 10.7044 4.3279 10.6056C4.23721 10.5068 4.1281 10.4269 4.0068 10.3706C3.8855 10.3142 3.75438 10.2826 3.62092 10.2773C3.3514 10.2667 3.08874 10.3645 2.89073 10.5491C2.69272 10.7337 2.57557 10.99 2.56505 11.2617C2.55454 11.5334 2.65152 11.7981 2.83467 11.9977C3.01781 12.1973 3.27212 12.3154 3.54164 12.326Z" fill="#46467F"/>
</g>
<defs>
<clipPath id="clip0_281_6611">
<rect width="42.6923" height="30.7385" fill="white" transform="translate(0.492188 0.0306396)"/>
</clipPath>
</defs>
</svg>
