<svg width="26" height="27" viewBox="0 0 26 27" fill="none" xmlns="http://www.w3.org/2000/svg">
<path id="Vector" d="M13.0609 0.63147C6.05244 0.63147 0.350098 6.33382 0.350098 13.3423C0.350098 20.3508 6.05244 26.0531 13.0609 26.0531C20.0694 26.0531 25.7717 20.3508 25.7717 13.3423C25.7717 6.33382 20.0694 0.63147 13.0609 0.63147ZM20.165 9.99733L12.0415 18.0571C11.5637 18.5349 10.7991 18.5668 10.2894 18.0889L5.98873 14.1706C5.47902 13.6927 5.44717 12.8963 5.89316 12.3866C6.37101 11.8769 7.16743 11.845 7.67713 12.3229L11.0858 15.4448L18.3491 8.1815C18.8588 7.6718 19.6552 7.6718 20.165 8.1815C20.6747 8.69121 20.6747 9.48763 20.165 9.99733Z" fill="#363636"/>
</svg>
