<svg width="50" height="36" viewBox="0 0 50 36" fill="none" xmlns="http://www.w3.org/2000/svg">
<g id="usd.static.e8b657d1161a08a32415d284a8e1dc89 1" clip-path="url(#clip0_281_6304)">
<path id="Vector" d="M0.142883 0.547607H49.0847V35.7857H0.142883V0.547607Z" fill="white"/>
<path id="Vector_2" fill-rule="evenodd" clip-rule="evenodd" d="M49.0847 0.547607H21.1179V2.89623H49.0847V0.547607ZM49.0847 5.24661H21.1179V7.59523H49.0847V5.24661ZM21.1179 9.94385H49.0847V12.2942H21.1179V9.94385ZM49.0847 14.6428H21.1179V16.9915H49.0847V14.6428ZM0.142883 19.3418H49.0847V21.6905H0.142883V19.3418ZM49.0847 24.0391H0.142883V26.3895H49.0847V24.0391ZM0.142883 28.7381H49.0847V31.0867H0.142883V28.7381ZM49.0847 33.4371H0.142883V35.7857H49.0847V33.4371Z" fill="#D02F44"/>
<path id="Vector_3" fill-rule="evenodd" clip-rule="evenodd" d="M21.1179 0.547607H0.142883V16.9915H21.1179V0.547607ZM3.63873 5.24661C3.79183 5.24661 3.94343 5.21621 4.08488 5.15715C4.22633 5.09809 4.35486 5.01153 4.46312 4.9024C4.57138 4.79328 4.65725 4.66372 4.71584 4.52114C4.77443 4.37856 4.80459 4.22574 4.80459 4.07142C4.80459 3.91709 4.77443 3.76427 4.71584 3.62169C4.65725 3.47911 4.57138 3.34956 4.46312 3.24043C4.35486 3.13131 4.22633 3.04474 4.08488 2.98568C3.94343 2.92662 3.79183 2.89623 3.63873 2.89623C3.32952 2.89623 3.03298 3.02004 2.81434 3.24043C2.59569 3.46082 2.47286 3.75974 2.47286 4.07142C2.47286 4.3831 2.59569 4.68201 2.81434 4.9024C3.03298 5.12279 3.32952 5.24661 3.63873 5.24661ZM8.30043 5.24661C8.45354 5.24661 8.60514 5.21621 8.74659 5.15715C8.88804 5.09809 9.01656 5.01153 9.12482 4.9024C9.23308 4.79328 9.31896 4.66372 9.37755 4.52114C9.43614 4.37856 9.4663 4.22574 9.4663 4.07142C9.4663 3.91709 9.43614 3.76427 9.37755 3.62169C9.31896 3.47911 9.23308 3.34956 9.12482 3.24043C9.01656 3.13131 8.88804 3.04474 8.74659 2.98568C8.60514 2.92662 8.45354 2.89623 8.30043 2.89623C7.99123 2.89623 7.69468 3.02004 7.47604 3.24043C7.2574 3.46082 7.13457 3.75974 7.13457 4.07142C7.13457 4.3831 7.2574 4.68201 7.47604 4.9024C7.69468 5.12279 7.99123 5.24661 8.30043 5.24661ZM12.9604 5.24661C13.1135 5.24661 13.2651 5.21621 13.4065 5.15715C13.548 5.09809 13.6765 5.01153 13.7848 4.9024C13.893 4.79328 13.9789 4.66372 14.0375 4.52114C14.0961 4.37856 14.1263 4.22574 14.1263 4.07142C14.1263 3.91709 14.0961 3.76427 14.0375 3.62169C13.9789 3.47911 13.893 3.34956 13.7848 3.24043C13.6765 3.13131 13.548 3.04474 13.4065 2.98568C13.2651 2.92662 13.1135 2.89623 12.9604 2.89623C12.6512 2.89623 12.3546 3.02004 12.136 3.24043C11.9174 3.46082 11.7945 3.75974 11.7945 4.07142C11.7945 4.3831 11.9174 4.68201 12.136 4.9024C12.3546 5.12279 12.6512 5.24661 12.9604 5.24661ZM17.6221 5.24661C17.7789 5.25273 17.9353 5.22689 18.0819 5.17063C18.2286 5.11438 18.3624 5.02886 18.4755 4.91922C18.5886 4.80957 18.6785 4.67804 18.74 4.53251C18.8014 4.38699 18.8331 4.23046 18.8331 4.0723C18.8331 3.91414 18.8014 3.75761 18.74 3.61208C18.6785 3.46656 18.5886 3.33503 18.4755 3.22538C18.3624 3.11573 18.2286 3.03022 18.0819 2.97396C17.9353 2.91771 17.7789 2.89187 17.6221 2.89799C17.3209 2.90975 17.036 3.03862 16.827 3.25756C16.6181 3.4765 16.5014 3.76849 16.5014 4.0723C16.5014 4.3761 16.6181 4.6681 16.827 4.88704C17.036 5.10598 17.3209 5.23485 17.6221 5.24661ZM5.96871 7.59523C6.12169 7.60124 6.27436 7.57682 6.41799 7.52337C6.56161 7.46991 6.69339 7.38846 6.80579 7.28367C6.91819 7.17888 7.00901 7.0528 7.07307 6.91263C7.13713 6.77246 7.17317 6.62094 7.17914 6.46673C7.18511 6.31251 7.16088 6.15863 7.10785 6.01385C7.05482 5.86907 6.97402 5.73625 6.87006 5.62295C6.7661 5.50965 6.64102 5.4181 6.50196 5.35353C6.3629 5.28895 6.21259 5.25262 6.0596 5.24661C5.75062 5.23446 5.44951 5.34653 5.22251 5.55816C4.99551 5.7698 4.86121 6.06366 4.84916 6.37511C4.83711 6.68655 4.94829 6.99007 5.15824 7.21889C5.3682 7.4477 5.65973 7.58308 5.96871 7.59523ZM10.6304 7.59523C10.7834 7.60124 10.9361 7.57682 11.0797 7.52337C11.2233 7.46991 11.3551 7.38846 11.4675 7.28367C11.5799 7.17888 11.6707 7.0528 11.7348 6.91263C11.7988 6.77246 11.8349 6.62094 11.8408 6.46673C11.8468 6.31251 11.8226 6.15863 11.7696 6.01385C11.7165 5.86907 11.6357 5.73625 11.5318 5.62295C11.4278 5.50965 11.3027 5.4181 11.1637 5.35353C11.0246 5.28895 10.8743 5.25262 10.7213 5.24661C10.4123 5.23446 10.1112 5.34653 9.88422 5.55816C9.65722 5.7698 9.52292 6.06366 9.51087 6.37511C9.49881 6.68655 9.61 6.99007 9.81995 7.21889C10.0299 7.4477 10.3214 7.58308 10.6304 7.59523ZM15.2921 7.59523C15.4451 7.60124 15.5978 7.57682 15.7414 7.52337C15.885 7.46991 16.0168 7.38846 16.1292 7.28367C16.2416 7.17888 16.3324 7.0528 16.3965 6.91263C16.4605 6.77246 16.4966 6.62094 16.5026 6.46673C16.5085 6.31251 16.4843 6.15863 16.4313 6.01385C16.3782 5.86907 16.2974 5.73625 16.1935 5.62295C16.0895 5.50965 15.9644 5.4181 15.8254 5.35353C15.6863 5.28895 15.536 5.25262 15.383 5.24661C15.074 5.23446 14.7729 5.34653 14.5459 5.55816C14.3189 5.7698 14.1846 6.06366 14.1726 6.37511C14.1605 6.68655 14.2717 6.99007 14.4817 7.21889C14.6916 7.4477 14.9831 7.58308 15.2921 7.59523ZM17.6221 9.94385C17.7751 9.94986 17.9278 9.92544 18.0714 9.87199C18.215 9.81853 18.3468 9.73708 18.4592 9.63229C18.5716 9.5275 18.6624 9.40142 18.7265 9.26125C18.7905 9.12108 18.8266 8.96956 18.8325 8.81535C18.8385 8.66113 18.8143 8.50725 18.7612 8.36247C18.7082 8.21769 18.6274 8.08486 18.5235 7.97157C18.4195 7.85827 18.2944 7.76672 18.1554 7.70215C18.0163 7.63757 17.866 7.60124 17.713 7.59523C17.404 7.58308 17.1029 7.69515 16.8759 7.90678C16.6489 8.11842 16.5146 8.41228 16.5026 8.72373C16.4905 9.03517 16.6017 9.33869 16.8116 9.56751C17.0216 9.79632 17.3131 9.9317 17.6221 9.94385ZM12.9604 9.94385C13.1134 9.94986 13.266 9.92544 13.4097 9.87199C13.5533 9.81853 13.6851 9.73708 13.7975 9.63229C13.9099 9.5275 14.0007 9.40142 14.0648 9.26125C14.1288 9.12108 14.1649 8.96956 14.1708 8.81535C14.1768 8.66113 14.1526 8.50725 14.0995 8.36247C14.0465 8.21769 13.9657 8.08486 13.8617 7.97157C13.7578 7.85827 13.6327 7.76672 13.4936 7.70215C13.3546 7.63757 13.2043 7.60124 13.0513 7.59523C12.7423 7.58308 12.4412 7.69515 12.2142 7.90678C11.9872 8.11842 11.8529 8.41228 11.8408 8.72373C11.8288 9.03517 11.94 9.33869 12.1499 9.56751C12.3599 9.79632 12.6514 9.9317 12.9604 9.94385ZM8.30043 9.94385C8.45342 9.94986 8.60609 9.92544 8.74971 9.87199C8.89334 9.81853 9.02512 9.73708 9.13752 9.63229C9.24991 9.5275 9.34074 9.40142 9.4048 9.26125C9.46886 9.12108 9.5049 8.96956 9.51087 8.81535C9.51684 8.66113 9.49261 8.50725 9.43958 8.36247C9.38655 8.21769 9.30575 8.08486 9.20179 7.97157C9.09783 7.85827 8.97275 7.76672 8.83369 7.70215C8.69463 7.63757 8.54431 7.60124 8.39132 7.59523C8.08235 7.58308 7.78124 7.69515 7.55424 7.90678C7.32724 8.11842 7.19294 8.41228 7.18089 8.72373C7.16884 9.03517 7.28002 9.33869 7.48997 9.56751C7.69993 9.79632 7.99146 9.9317 8.30043 9.94385ZM3.63873 9.94385C3.79171 9.94986 3.94438 9.92544 4.08801 9.87199C4.23163 9.81853 4.36341 9.73708 4.47581 9.63229C4.58821 9.5275 4.67903 9.40142 4.74309 9.26125C4.80715 9.12108 4.84319 8.96956 4.84916 8.81535C4.85513 8.66113 4.83091 8.50725 4.77787 8.36247C4.72484 8.21769 4.64404 8.08486 4.54008 7.97157C4.43612 7.85827 4.31104 7.76672 4.17198 7.70215C4.03292 7.63757 3.88261 7.60124 3.72962 7.59523C3.42064 7.58308 3.11954 7.69515 2.89253 7.90678C2.66553 8.11842 2.53124 8.41228 2.51918 8.72373C2.50713 9.03517 2.61831 9.33869 2.82826 9.56751C3.03822 9.79632 3.32975 9.9317 3.63873 9.94385ZM5.96871 12.2942C6.27791 12.2942 6.57445 12.1704 6.7931 11.95C7.01174 11.7296 7.13457 11.4307 7.13457 11.119C7.13457 10.8074 7.01174 10.5084 6.7931 10.2881C6.57445 10.0677 6.27791 9.94385 5.96871 9.94385C5.6595 9.94385 5.36296 10.0677 5.14432 10.2881C4.92567 10.5084 4.80284 10.8074 4.80284 11.119C4.80284 11.4307 4.92567 11.7296 5.14432 11.95C5.36296 12.1704 5.6595 12.2942 5.96871 12.2942ZM10.6304 12.2942C10.9396 12.2942 11.2362 12.1704 11.4548 11.95C11.6734 11.7296 11.7963 11.4307 11.7963 11.119C11.7963 10.8074 11.6734 10.5084 11.4548 10.2881C11.2362 10.0677 10.9396 9.94385 10.6304 9.94385C10.3212 9.94385 10.0247 10.0677 9.80602 10.2881C9.58738 10.5084 9.46455 10.8074 9.46455 11.119C9.46455 11.4307 9.58738 11.7296 9.80602 11.95C10.0247 12.1704 10.3212 12.2942 10.6304 12.2942ZM15.2921 12.2942C15.6013 12.2942 15.8979 12.1704 16.1165 11.95C16.3351 11.7296 16.458 11.4307 16.458 11.119C16.458 10.8074 16.3351 10.5084 16.1165 10.2881C15.8979 10.0677 15.6013 9.94385 15.2921 9.94385C14.9829 9.94385 14.6864 10.0677 14.4677 10.2881C14.2491 10.5084 14.1263 10.8074 14.1263 11.119C14.1263 11.4307 14.2491 11.7296 14.4677 11.95C14.6864 12.1704 14.9829 12.2942 15.2921 12.2942ZM17.6221 14.6428C17.7751 14.6489 17.9278 14.6244 18.0714 14.571C18.215 14.5175 18.3468 14.4361 18.4592 14.3313C18.5716 14.2265 18.6624 14.1004 18.7265 13.9602C18.7905 13.8201 18.8266 13.6686 18.8325 13.5143C18.8385 13.3601 18.8143 13.2062 18.7612 13.0615C18.7082 12.9167 18.6274 12.7839 18.5235 12.6706C18.4195 12.5573 18.2944 12.4657 18.1554 12.4011C18.0163 12.3366 17.866 12.3002 17.713 12.2942C17.404 12.2821 17.1029 12.3941 16.8759 12.6058C16.6489 12.8174 16.5146 13.1113 16.5026 13.4227C16.4905 13.7342 16.6017 14.0377 16.8116 14.2665C17.0216 14.4953 17.3131 14.6307 17.6221 14.6428ZM12.9604 14.6428C13.1134 14.6489 13.266 14.6244 13.4097 14.571C13.5533 14.5175 13.6851 14.4361 13.7975 14.3313C13.9099 14.2265 14.0007 14.1004 14.0648 13.9602C14.1288 13.8201 14.1649 13.6686 14.1708 13.5143C14.1768 13.3601 14.1526 13.2062 14.0995 13.0615C14.0465 12.9167 13.9657 12.7839 13.8617 12.6706C13.7578 12.5573 13.6327 12.4657 13.4936 12.4011C13.3546 12.3366 13.2043 12.3002 13.0513 12.2942C12.7423 12.2821 12.4412 12.3941 12.2142 12.6058C11.9872 12.8174 11.8529 13.1113 11.8408 13.4227C11.8288 13.7342 11.94 14.0377 12.1499 14.2665C12.3599 14.4953 12.6514 14.6307 12.9604 14.6428ZM8.30043 14.6428C8.45342 14.6489 8.60609 14.6244 8.74971 14.571C8.89334 14.5175 9.02512 14.4361 9.13752 14.3313C9.24991 14.2265 9.34074 14.1004 9.4048 13.9602C9.46886 13.8201 9.5049 13.6686 9.51087 13.5143C9.51684 13.3601 9.49261 13.2062 9.43958 13.0615C9.38655 12.9167 9.30575 12.7839 9.20179 12.6706C9.09783 12.5573 8.97275 12.4657 8.83369 12.4011C8.69463 12.3366 8.54431 12.3002 8.39132 12.2942C8.08235 12.2821 7.78124 12.3941 7.55424 12.6058C7.32724 12.8174 7.19294 13.1113 7.18089 13.4227C7.16884 13.7342 7.28002 14.0377 7.48997 14.2665C7.69993 14.4953 7.99146 14.6307 8.30043 14.6428ZM3.63873 14.6428C3.79171 14.6489 3.94438 14.6244 4.08801 14.571C4.23163 14.5175 4.36341 14.4361 4.47581 14.3313C4.58821 14.2265 4.67903 14.1004 4.74309 13.9602C4.80715 13.8201 4.84319 13.6686 4.84916 13.5143C4.85513 13.3601 4.83091 13.2062 4.77787 13.0615C4.72484 12.9167 4.64404 12.7839 4.54008 12.6706C4.43612 12.5573 4.31104 12.4657 4.17198 12.4011C4.03292 12.3366 3.88261 12.3002 3.72962 12.2942C3.42064 12.2821 3.11954 12.3941 2.89253 12.6058C2.66553 12.8174 2.53124 13.1113 2.51918 13.4227C2.50713 13.7342 2.61831 14.0377 2.82826 14.2665C3.03822 14.4953 3.32975 14.6307 3.63873 14.6428Z" fill="#46467F"/>
</g>
<defs>
<clipPath id="clip0_281_6304">
<rect width="48.9418" height="35.2381" fill="white" transform="translate(0.142883 0.547607)"/>
</clipPath>
</defs>
</svg>
